<svg width="41" height="40" viewBox="0 0 41 40" fill="none" xmlns="http://www.w3.org/2000/svg">
<path d="M2.82096 0.708008H38.322C39.5445 0.708008 40.5174 1.65678 40.5174 2.84883V37.4911C40.5174 38.6589 39.5445 39.632 38.322 39.632H28.1432V24.5489H33.3324L34.1058 18.686H28.1432V14.9396C28.1432 13.2367 28.6422 12.0689 31.137 12.0689H34.3303V6.8142C33.7815 6.74122 31.8854 6.59526 29.69 6.59526C25.0746 6.59526 21.9311 9.31993 21.9311 14.3557V18.686H16.717V24.5489H21.9311V39.632H2.82096C2.23638 39.632 1.67536 39.4072 1.25967 39.0064C0.843982 38.6056 0.607154 38.0611 0.600586 37.4911V2.84883C0.600586 1.65678 1.59851 0.708008 2.82096 0.708008Z" fill="white"/>
</svg>
