<svg width="39" height="39" viewBox="0 0 39 39" fill="none" xmlns="http://www.w3.org/2000/svg">
<path d="M19.5 36.5625C14.9747 36.5625 10.6348 34.7648 7.43499 31.565C4.23515 28.3652 2.4375 24.0253 2.4375 19.5C2.4375 14.9747 4.23515 10.6348 7.43499 7.43499C10.6348 4.23515 14.9747 2.4375 19.5 2.4375C24.0253 2.4375 28.3652 4.23515 31.565 7.43499C34.7648 10.6348 36.5625 14.9747 36.5625 19.5C36.5625 24.0253 34.7648 28.3652 31.565 31.565C28.3652 34.7648 24.0253 36.5625 19.5 36.5625ZM19.5 39C24.6717 39 29.6316 36.9455 33.2886 33.2886C36.9455 29.6316 39 24.6717 39 19.5C39 14.3283 36.9455 9.36838 33.2886 5.71142C29.6316 2.05446 24.6717 0 19.5 0C14.3283 0 9.36838 2.05446 5.71142 5.71142C2.05446 9.36838 0 14.3283 0 19.5C0 24.6717 2.05446 29.6316 5.71142 33.2886C9.36838 36.9455 14.3283 39 19.5 39Z" fill="white"/>
<path d="M11.3246 11.3246C11.4378 11.2111 11.5723 11.1211 11.7204 11.0596C11.8684 10.9982 12.0272 10.9666 12.1875 10.9666C12.3478 10.9666 12.5065 10.9982 12.6546 11.0596C12.8027 11.1211 12.9371 11.2111 13.0504 11.3246L19.5 17.7767L25.9496 11.3246C26.0629 11.2113 26.1974 11.1214 26.3455 11.0601C26.4935 10.9988 26.6522 10.9672 26.8125 10.9672C26.9727 10.9672 27.1314 10.9988 27.2795 11.0601C27.4275 11.1214 27.562 11.2113 27.6754 11.3246C27.7887 11.4379 27.8786 11.5724 27.9399 11.7205C28.0012 11.8685 28.0328 12.0272 28.0328 12.1875C28.0328 12.3477 28.0012 12.5064 27.9399 12.6545C27.8786 12.8025 27.7887 12.937 27.6754 13.0504L21.2233 19.5L27.6754 25.9496C27.7887 26.0629 27.8786 26.1974 27.9399 26.3455C28.0012 26.4935 28.0328 26.6522 28.0328 26.8125C28.0328 26.9727 28.0012 27.1314 27.9399 27.2795C27.8786 27.4275 27.7887 27.562 27.6754 27.6754C27.562 27.7887 27.4275 27.8786 27.2795 27.9399C27.1314 28.0012 26.9727 28.0328 26.8125 28.0328C26.6522 28.0328 26.4935 28.0012 26.3455 27.9399C26.1974 27.8786 26.0629 27.7887 25.9496 27.6754L19.5 21.2233L13.0504 27.6754C12.937 27.7887 12.8025 27.8786 12.6545 27.9399C12.5064 28.0012 12.3477 28.0328 12.1875 28.0328C12.0272 28.0328 11.8685 28.0012 11.7205 27.9399C11.5724 27.8786 11.4379 27.7887 11.3246 27.6754C11.2113 27.562 11.1214 27.4275 11.0601 27.2795C10.9988 27.1314 10.9672 26.9727 10.9672 26.8125C10.9672 26.6522 10.9988 26.4935 11.0601 26.3455C11.1214 26.1974 11.2113 26.0629 11.3246 25.9496L17.7767 19.5L11.3246 13.0504C11.2111 12.9371 11.1211 12.8027 11.0596 12.6546C10.9982 12.5065 10.9666 12.3478 10.9666 12.1875C10.9666 12.0272 10.9982 11.8684 11.0596 11.7204C11.1211 11.5723 11.2111 11.4378 11.3246 11.3246Z" fill="white"/>
</svg>
