<svg width="20" height="20" viewBox="0 0 20 20" fill="none" xmlns="http://www.w3.org/2000/svg">
<path d="M19.99 6.59021L19.1513 11.6008C19.0478 12.1543 18.6243 12.4908 18.136 12.4971H5.90833L5.66557 13.9222H17.3193C17.933 13.9707 18.3492 14.4234 18.3567 15.0024C18.3121 15.6401 17.8774 16.0748 17.3193 16.0827H4.42955C3.73243 16.0174 3.31675 15.4387 3.39218 14.7956L3.94397 11.6697L3.10525 2.88969L0.721532 2.10827C0.139015 1.86743 -0.0987351 1.31867 0.0373149 0.752205C0.263532 0.161845 0.805582 -0.107883 1.33953 0.0396938L4.3854 1.051C4.79573 1.21118 5.03178 1.56096 5.09168 1.97038L5.26825 3.71718L19.085 5.32607C19.7199 5.46928 20.0645 5.99292 19.99 6.59021V6.59021ZM7.58787 18.3509C7.58787 19.2617 6.87887 20 6.00423 20C5.12962 20 4.42062 19.2617 4.42062 18.3509C4.42062 17.4401 5.12963 16.7018 6.00423 16.7018C6.87885 16.7018 7.58787 17.4401 7.58787 18.3509ZM17.0421 18.3509C17.0421 19.2617 16.3331 20 15.4584 20C14.5838 20 13.8748 19.2617 13.8748 18.3509C13.8748 17.4401 14.5838 16.7018 15.4584 16.7018C16.3331 16.7018 17.0421 17.4401 17.0421 18.3509Z" fill="white"/>
</svg>
