<svg width="41" height="40" viewBox="0 0 41 40" fill="none" xmlns="http://www.w3.org/2000/svg">
<path fill-rule="evenodd" clip-rule="evenodd" d="M12.2037 0.82478C14.332 0.729239 15.0106 0.708008 20.4321 0.708008C25.8535 0.708008 26.5321 0.731008 28.6586 0.82478C30.785 0.918551 32.2365 1.2494 33.5066 1.72888C34.8366 2.21896 36.0432 2.98506 37.0411 3.97585C38.0571 4.94718 38.841 6.12198 39.3417 7.42062C39.8353 8.65911 40.1727 10.0745 40.2707 12.1446C40.3687 14.2235 40.3905 14.8852 40.3905 20.17C40.3905 25.4566 40.3669 26.1183 40.2707 28.1936C40.1746 30.2637 39.8353 31.6791 39.3417 32.9176C38.841 34.2164 38.0558 35.3931 37.0411 36.3659C36.0432 37.3567 34.8366 38.121 33.5066 38.6093C32.2365 39.0906 30.785 39.4196 28.6622 39.5152C26.5321 39.6107 25.8535 39.632 20.4321 39.632C15.0106 39.632 14.332 39.609 12.2037 39.5152C10.0809 39.4214 8.62937 39.0906 7.35929 38.6093C6.02737 38.1209 4.82061 37.3554 3.82302 36.3659C2.80764 35.394 2.02189 34.2178 1.52054 32.9193C1.02884 31.6809 0.691361 30.2654 0.593383 28.1954C0.495406 26.1165 0.473633 25.4548 0.473633 20.17C0.473633 14.8834 0.49722 14.2217 0.593383 12.1481C0.689547 10.0745 1.02884 8.65911 1.52054 7.42062C2.02263 6.12212 2.80898 4.94596 3.82483 3.97408C4.82101 2.98418 6.02656 2.21798 7.35747 1.72888C8.62755 1.2494 10.0791 0.92032 12.2019 0.82478H12.2037ZM28.4971 4.32793C26.3924 4.23416 25.761 4.2147 20.4321 4.2147C15.1032 4.2147 14.4717 4.23416 12.367 4.32793C10.4202 4.41463 9.3642 4.73133 8.66021 4.99849C7.72943 5.35234 7.06354 5.77166 6.365 6.45283C5.70282 7.08101 5.19322 7.84574 4.87356 8.69096C4.59958 9.37743 4.2748 10.4071 4.1859 12.3056C4.08974 14.3579 4.06978 14.9736 4.06978 20.17C4.06978 25.3663 4.08974 25.982 4.1859 28.0344C4.2748 29.9328 4.59958 30.9625 4.87356 31.649C5.19289 32.493 5.70274 33.259 6.365 33.8871C7.00911 34.5329 7.79474 35.0301 8.66021 35.3415C9.3642 35.6086 10.4202 35.9253 12.367 36.012C14.4717 36.1058 15.1013 36.1253 20.4321 36.1253C25.7628 36.1253 26.3924 36.1058 28.4971 36.012C30.4439 35.9253 31.4999 35.6086 32.2039 35.3415C33.1347 34.9876 33.8006 34.5683 34.4991 33.8871C35.1614 33.259 35.6712 32.493 35.9905 31.649C36.2645 30.9625 36.5893 29.9328 36.6782 28.0344C36.7744 25.982 36.7943 25.3663 36.7943 20.17C36.7943 14.9736 36.7744 14.3579 36.6782 12.3056C36.5893 10.4071 36.2645 9.37743 35.9905 8.69096C35.6277 7.78332 35.1977 7.134 34.4991 6.45283C33.8549 5.80717 33.0706 5.31025 32.2039 4.99849C31.4999 4.73133 30.4439 4.41463 28.4971 4.32793ZM17.8828 26.1696C19.3065 26.7475 20.8918 26.8255 22.3679 26.3902C23.844 25.955 25.1194 25.0336 25.9762 23.7833C26.8329 22.533 27.218 21.0314 27.0656 19.535C26.9132 18.0386 26.2327 16.6402 25.1404 15.5787C24.4441 14.9002 23.6022 14.3806 22.6753 14.0574C21.7483 13.7342 20.7594 13.6155 19.7798 13.7097C18.8001 13.8039 17.8541 14.1088 17.0097 14.6023C16.1654 15.0959 15.4438 15.7658 14.8969 16.5639C14.3499 17.3621 13.9913 18.2685 13.8467 19.218C13.7022 20.1676 13.7753 21.1365 14.0609 22.0552C14.3464 22.9738 14.8373 23.8193 15.4982 24.5307C16.1591 25.2422 16.9735 25.8019 17.8828 26.1696ZM13.1781 13.0964C14.1307 12.1675 15.2616 11.4307 16.5062 10.928C17.7509 10.4252 19.0849 10.1665 20.4321 10.1665C21.7792 10.1665 23.1132 10.4252 24.3579 10.928C25.6025 11.4307 26.7334 12.1675 27.686 13.0964C28.6386 14.0253 29.3943 15.1281 29.9098 16.3418C30.4254 17.5555 30.6907 18.8563 30.6907 20.17C30.6907 21.4837 30.4254 22.7845 29.9098 23.9982C29.3943 25.2118 28.6386 26.3146 27.686 27.2435C25.7622 29.1195 23.1528 30.1735 20.4321 30.1735C17.7113 30.1735 15.1019 29.1195 13.1781 27.2435C11.2542 25.3675 10.1734 22.8231 10.1734 20.17C10.1734 17.5169 11.2542 14.9725 13.1781 13.0964ZM32.9659 11.6563C33.202 11.4391 33.391 11.178 33.5217 10.8883C33.6524 10.5987 33.7222 10.2864 33.7269 9.97001C33.7317 9.6536 33.6712 9.33948 33.5492 9.04624C33.4272 8.75301 33.2461 8.48662 33.0167 8.26286C32.7872 8.0391 32.514 7.86251 32.2133 7.74354C31.9126 7.62458 31.5905 7.56566 31.266 7.57027C30.9415 7.57488 30.6212 7.64294 30.3242 7.7704C30.0272 7.89786 29.7594 8.08214 29.5367 8.31233C29.1036 8.76001 28.8665 9.35465 28.8757 9.97001C28.8849 10.5854 29.1397 11.173 29.586 11.6082C30.0323 12.0434 30.6349 12.2918 31.266 12.3008C31.897 12.3098 32.5068 12.0786 32.9659 11.6563Z" fill="white"/>
</svg>
