<svg width="77" height="37" viewBox="0 0 77 37" fill="none" xmlns="http://www.w3.org/2000/svg">
<g filter="url(#filter0_i)">
<path d="M2.64 13.524C3.384 13.508 3.96 13.772 4.368 14.316C4.728 14.804 4.884 15.388 4.836 16.068L4.236 16.032C4.276 15.496 4.16 15.044 3.888 14.676C3.576 14.268 3.124 14.084 2.532 14.124C2.532 14.124 2.528 14.124 2.52 14.124C2.12 14.156 1.76 14.328 1.44 14.64C1.128 14.952 0.924 15.328 0.828 15.768C0.74 16.208 0.776 16.676 0.936 17.172C1 17.34 1.084 17.496 1.188 17.64C1.3 17.776 1.444 17.908 1.62 18.036C1.804 18.164 1.96 18.268 2.088 18.348C2.216 18.42 2.412 18.528 2.676 18.672C2.94 18.808 3.128 18.908 3.24 18.972C3.84 19.316 4.264 19.68 4.512 20.064C4.856 20.592 4.956 21.248 4.812 22.032C4.732 22.504 4.536 22.904 4.224 23.232C3.912 23.56 3.552 23.788 3.144 23.916C2.744 24.044 2.34 24.068 1.932 23.988C1.252 23.868 0.736 23.52 0.384 22.944C0 22.304 -0.088 21.496 0.12 20.52L0.708 20.64C0.532 21.464 0.596 22.128 0.9 22.632C1.156 23.056 1.536 23.312 2.04 23.4C2.528 23.488 2.988 23.4 3.42 23.136C3.86 22.872 4.128 22.468 4.224 21.924C4.344 21.3 4.272 20.788 4.008 20.388C3.816 20.084 3.46 19.784 2.94 19.488C2.836 19.432 2.652 19.336 2.388 19.2C2.124 19.064 1.916 18.952 1.764 18.864C1.612 18.768 1.432 18.648 1.224 18.504C1.024 18.352 0.852 18.184 0.708 18C0.572 17.816 0.46 17.612 0.372 17.388C0.196 16.948 0.132 16.504 0.18 16.056C0.228 15.608 0.348 15.204 0.54 14.844C0.732 14.476 1 14.172 1.344 13.932C1.688 13.692 2.068 13.556 2.484 13.524C2.54 13.524 2.592 13.524 2.64 13.524ZM5.76562 13.572H10.8296V14.172H8.59763V23.928H7.99763V14.172H5.76562V13.572ZM14.0256 13.512C14.5536 13.512 14.9896 13.672 15.3336 13.992C15.6296 14.28 15.8456 14.688 15.9816 15.216C16.1016 15.656 16.1736 16.148 16.1976 16.692C16.2296 17.236 16.2376 17.928 16.2216 18.768C16.2216 18.832 16.2176 18.988 16.2096 19.236C16.2096 19.476 16.2096 19.636 16.2096 19.716C16.2096 19.796 16.2056 19.944 16.1976 20.16C16.1896 20.368 16.1816 20.524 16.1736 20.628C16.1656 20.732 16.1536 20.876 16.1376 21.06C16.1296 21.236 16.1136 21.384 16.0896 21.504C16.0736 21.616 16.0536 21.744 16.0296 21.888C16.0056 22.032 15.9776 22.164 15.9456 22.284C15.7936 22.844 15.5616 23.268 15.2496 23.556C14.8896 23.892 14.4216 24.048 13.8456 24.024C13.2936 24.008 12.8456 23.828 12.5016 23.484C12.2056 23.188 11.9856 22.768 11.8416 22.224C11.7616 21.92 11.7016 21.568 11.6616 21.168C11.6216 20.768 11.6016 20.376 11.6016 19.992C11.6016 19.608 11.6016 19.2 11.6016 18.768C11.6096 18.712 11.6136 18.56 11.6136 18.312C11.6136 18.064 11.6136 17.904 11.6136 17.832C11.6136 17.752 11.6176 17.604 11.6256 17.388C11.6336 17.172 11.6376 17.016 11.6376 16.92C11.6456 16.824 11.6576 16.684 11.6736 16.5C11.6896 16.316 11.7056 16.168 11.7216 16.056C11.7376 15.944 11.7576 15.816 11.7816 15.672C11.8136 15.528 11.8456 15.396 11.8776 15.276C12.0296 14.716 12.2656 14.292 12.5856 14.004C12.9536 13.668 13.4336 13.504 14.0256 13.512ZM13.9656 14.112C13.5576 14.112 13.2296 14.224 12.9816 14.448C12.7496 14.664 12.5736 14.992 12.4536 15.432C12.3816 15.696 12.3256 16.044 12.2856 16.476C12.2456 16.9 12.2216 17.232 12.2136 17.472C12.2136 17.712 12.2096 18.144 12.2016 18.768C12.1856 20.36 12.2576 21.464 12.4176 22.08C12.5376 22.52 12.7056 22.848 12.9216 23.064C13.1616 23.296 13.4736 23.416 13.8576 23.424C14.2736 23.44 14.6016 23.336 14.8416 23.112C15.0656 22.904 15.2376 22.576 15.3576 22.128C15.4296 21.856 15.4856 21.504 15.5256 21.072C15.5656 20.64 15.5896 20.308 15.5976 20.076C15.6056 19.836 15.6136 19.4 15.6216 18.768C15.6456 17.128 15.5736 15.996 15.4056 15.372C15.2936 14.948 15.1296 14.636 14.9136 14.436C14.6896 14.22 14.3896 14.112 14.0136 14.112C13.9976 14.112 13.9816 14.112 13.9656 14.112ZM18.2318 13.56C18.2558 13.56 18.2838 13.56 18.3158 13.56C19.1638 13.576 19.8638 13.716 20.4158 13.98C20.8798 14.204 21.2398 14.54 21.4958 14.988C21.7598 15.428 21.8758 15.972 21.8438 16.62C21.8038 17.284 21.6158 17.836 21.2798 18.276C20.9518 18.716 20.5398 19.044 20.0438 19.26C19.5398 19.484 18.9958 19.6 18.4118 19.608L21.9998 23.556L21.5558 23.964L17.9438 19.98V23.928H17.3438V13.884C17.3438 13.804 17.3718 13.736 17.4278 13.68C17.4838 13.616 17.5518 13.584 17.6318 13.584C17.8398 13.568 18.0398 13.56 18.2318 13.56ZM18.2198 14.16C18.1318 14.16 18.0398 14.164 17.9438 14.172V18.972C18.6078 19.052 19.2278 18.968 19.8038 18.72C20.6998 18.328 21.1798 17.616 21.2438 16.584C21.2758 16.032 21.1958 15.596 21.0038 15.276C20.8198 14.956 20.5358 14.704 20.1518 14.52C19.6878 14.296 19.0718 14.176 18.3038 14.16C18.2718 14.16 18.2438 14.16 18.2198 14.16ZM28.5808 13.56C28.6688 13.56 28.7408 13.588 28.7968 13.644C28.8528 13.7 28.8808 13.772 28.8808 13.86V23.928H28.2808V15.276L26.2768 19.776C26.2288 19.896 26.1368 19.956 26.0008 19.956C25.8728 19.956 25.7848 19.896 25.7368 19.776L23.7328 15.276V23.928H23.1328V13.86C23.1328 13.772 23.1608 13.7 23.2168 13.644C23.2808 13.588 23.3528 13.56 23.4328 13.56C23.5608 13.56 23.6528 13.62 23.7088 13.74L26.0128 18.912L28.3048 13.74C28.3608 13.62 28.4528 13.56 28.5808 13.56ZM35.5917 13.512C36.1197 13.512 36.5517 13.616 36.8877 13.824C37.2317 14.024 37.4797 14.292 37.6317 14.628C37.6637 14.7 37.6917 14.772 37.7157 14.844C37.7397 14.908 37.7597 14.98 37.7757 15.06C37.7917 15.132 37.8077 15.196 37.8237 15.252C37.8397 15.308 37.8517 15.38 37.8597 15.468C37.8677 15.548 37.8717 15.612 37.8717 15.66C37.8797 15.7 37.8837 15.764 37.8837 15.852C37.8837 15.94 37.8837 16 37.8837 16.032C37.8837 16.056 37.8837 16.112 37.8837 16.2C37.8837 16.288 37.8837 16.336 37.8837 16.344H37.2837C37.2837 15.656 37.2197 15.168 37.0917 14.88C36.9797 14.632 36.8117 14.444 36.5877 14.316C36.3637 14.18 36.0317 14.112 35.5917 14.112C34.9917 14.112 34.5277 14.3 34.1997 14.676C33.8077 15.116 33.6117 15.82 33.6117 16.788V20.748C33.6117 21.724 33.8077 22.44 34.1997 22.896C34.5357 23.28 34.9957 23.456 35.5797 23.424C36.0037 23.408 36.3397 23.268 36.5877 23.004C36.8197 22.772 36.9917 22.432 37.1037 21.984C37.2317 21.48 37.2917 20.648 37.2837 19.488H35.7357V18.888H37.5837C37.6717 18.888 37.7437 18.92 37.7997 18.984C37.8557 19.04 37.8837 19.108 37.8837 19.188C37.8837 19.236 37.8837 19.38 37.8837 19.62C37.8917 19.86 37.8917 20.028 37.8837 20.124C37.8837 20.22 37.8797 20.38 37.8717 20.604C37.8717 20.82 37.8637 21 37.8477 21.144C37.8317 21.28 37.8077 21.44 37.7757 21.624C37.7517 21.808 37.7197 21.976 37.6797 22.128C37.5437 22.68 37.3237 23.112 37.0197 23.424C36.6597 23.792 36.1917 23.992 35.6157 24.024C34.8317 24.064 34.2077 23.82 33.7437 23.292C33.2557 22.724 33.0117 21.876 33.0117 20.748V16.788C33.0117 15.676 33.2557 14.84 33.7437 14.28C34.1917 13.768 34.8077 13.512 35.5917 13.512ZM41.531 13.56C41.683 13.56 41.779 13.632 41.819 13.776L44.507 23.784L43.931 23.94L42.815 19.8H40.235L39.119 23.94L38.543 23.784L41.231 13.776C41.271 13.632 41.371 13.56 41.531 13.56ZM41.531 15.012L40.403 19.2H42.659L41.531 15.012ZM51.0808 13.56C51.1688 13.56 51.2408 13.588 51.2968 13.644C51.3528 13.7 51.3808 13.772 51.3808 13.86V23.928H50.7808V15.276L48.7768 19.776C48.7288 19.896 48.6368 19.956 48.5008 19.956C48.3728 19.956 48.2848 19.896 48.2368 19.776L46.2328 15.276V23.928H45.6328V13.86C45.6328 13.772 45.6608 13.7 45.7168 13.644C45.7808 13.588 45.8528 13.56 45.9328 13.56C46.0608 13.56 46.1528 13.62 46.2088 13.74L48.5128 18.912L50.8048 13.74C50.8608 13.62 50.9528 13.56 51.0808 13.56ZM52.8117 13.572H56.3757V14.172H53.1117V18.348H56.3757V18.948H53.1117V23.364H56.3757V23.964H52.8117C52.7317 23.964 52.6597 23.936 52.5957 23.88C52.5397 23.824 52.5117 23.752 52.5117 23.664V13.872C52.5117 13.784 52.5397 13.712 52.5957 13.656C52.6597 13.6 52.7317 13.572 52.8117 13.572ZM60.1322 13.524C60.8762 13.508 61.4522 13.772 61.8602 14.316C62.2202 14.804 62.3762 15.388 62.3282 16.068L61.7282 16.032C61.7682 15.496 61.6522 15.044 61.3802 14.676C61.0682 14.268 60.6162 14.084 60.0242 14.124C60.0242 14.124 60.0202 14.124 60.0122 14.124C59.6122 14.156 59.2522 14.328 58.9322 14.64C58.6202 14.952 58.4162 15.328 58.3202 15.768C58.2322 16.208 58.2682 16.676 58.4282 17.172C58.4922 17.34 58.5762 17.496 58.6802 17.64C58.7922 17.776 58.9362 17.908 59.1122 18.036C59.2962 18.164 59.4522 18.268 59.5802 18.348C59.7082 18.42 59.9042 18.528 60.1682 18.672C60.4322 18.808 60.6202 18.908 60.7322 18.972C61.3322 19.316 61.7562 19.68 62.0042 20.064C62.3482 20.592 62.4482 21.248 62.3042 22.032C62.2242 22.504 62.0282 22.904 61.7162 23.232C61.4042 23.56 61.0442 23.788 60.6362 23.916C60.2362 24.044 59.8322 24.068 59.4242 23.988C58.7442 23.868 58.2282 23.52 57.8762 22.944C57.4922 22.304 57.4042 21.496 57.6122 20.52L58.2002 20.64C58.0242 21.464 58.0882 22.128 58.3922 22.632C58.6482 23.056 59.0282 23.312 59.5322 23.4C60.0202 23.488 60.4802 23.4 60.9122 23.136C61.3522 22.872 61.6202 22.468 61.7162 21.924C61.8362 21.3 61.7642 20.788 61.5002 20.388C61.3082 20.084 60.9522 19.784 60.4322 19.488C60.3282 19.432 60.1442 19.336 59.8802 19.2C59.6162 19.064 59.4082 18.952 59.2562 18.864C59.1042 18.768 58.9242 18.648 58.7162 18.504C58.5162 18.352 58.3442 18.184 58.2002 18C58.0642 17.816 57.9522 17.612 57.8642 17.388C57.6882 16.948 57.6242 16.504 57.6722 16.056C57.7202 15.608 57.8402 15.204 58.0322 14.844C58.2242 14.476 58.4922 14.172 58.8362 13.932C59.1802 13.692 59.5602 13.556 59.9762 13.524C60.0322 13.524 60.0842 13.524 60.1322 13.524Z" fill="white"/>
</g>
<path d="M71 9.3125C68.312 9.3125 66.125 11.864 66.125 15C66.125 18.136 68.312 20.6875 71 20.6875C73.688 20.6875 75.875 18.136 75.875 15C75.875 11.864 73.688 9.3125 71 9.3125ZM71 10.1875C73.2822 10.1875 75.125 12.3374 75.125 15C75.125 17.6626 73.2822 19.8125 71 19.8125C68.7178 19.8125 66.875 17.6626 66.875 15C66.875 12.3374 68.7178 10.1875 71 10.1875ZM69.5 12.375V17.625H70.25V15.875H71.5273L72.125 17.625H72.875L72.242 15.7656C72.8281 15.5281 73.25 14.8906 73.25 14.125C73.25 13.1581 72.5788 12.375 71.75 12.375H69.5ZM70.25 13.25H71.75C72.1966 13.25 72.5 13.6039 72.5 14.125C72.5 14.6461 72.1966 15 71.75 15H70.25V13.25Z" fill="white"/>
<defs>
<filter id="filter0_i" x="0.010498" y="13.5117" width="62.3575" height="14.5224" filterUnits="userSpaceOnUse" color-interpolation-filters="sRGB">
<feFlood flood-opacity="0" result="BackgroundImageFix"/>
<feBlend mode="normal" in="SourceGraphic" in2="BackgroundImageFix" result="shape"/>
<feColorMatrix in="SourceAlpha" type="matrix" values="0 0 0 0 0 0 0 0 0 0 0 0 0 0 0 0 0 0 127 0" result="hardAlpha"/>
<feOffset dy="4"/>
<feGaussianBlur stdDeviation="2"/>
<feComposite in2="hardAlpha" operator="arithmetic" k2="-1" k3="1"/>
<feColorMatrix type="matrix" values="0 0 0 0 0 0 0 0 0 0 0 0 0 0 0 0 0 0 0.25 0"/>
<feBlend mode="normal" in2="shape" result="effect1_innerShadow"/>
</filter>
</defs>
</svg>
