<svg width="41" height="40" viewBox="0 0 41 40" fill="none" xmlns="http://www.w3.org/2000/svg">
<path d="M38.669 0.734863H1.94555C1.06239 0.734863 0.348877 1.43063 0.348877 2.29182V38.1017C0.348877 38.9629 1.06239 39.6587 1.94555 39.6587H38.669C39.5522 39.6587 40.2657 38.9629 40.2657 38.1017V2.29182C40.2657 1.43063 39.5522 0.734863 38.669 0.734863ZM31.0499 14.8302C31.0649 15.0588 31.0649 15.2972 31.0649 15.5308C31.0649 22.6733 25.4865 30.9008 15.2927 30.9008C12.1493 30.9008 9.23536 30.0104 6.78048 28.4778C7.22954 28.5265 7.65865 28.5459 8.11769 28.5459C10.7123 28.5459 13.0973 27.6896 14.9984 26.2397C12.5634 26.191 10.5177 24.6341 9.81915 22.4933C10.6724 22.6149 11.4408 22.6149 12.3189 22.396C11.0652 22.1476 9.93827 21.4836 9.12967 20.5168C8.32106 19.5501 7.88062 18.3401 7.88318 17.0926V17.0245C8.61665 17.4283 9.47985 17.6765 10.383 17.7105C9.62377 17.2171 9.00114 16.5487 8.5703 15.7645C8.13947 14.9803 7.91373 14.1045 7.91312 13.2148C7.91312 12.2077 8.18256 11.2881 8.66655 10.4901C10.0582 12.1606 11.7947 13.5269 13.7633 14.5001C15.7318 15.4733 17.8884 16.0317 20.0927 16.139C19.3094 12.4655 22.1235 9.49272 25.5065 9.49272C27.1031 9.49272 28.5401 10.1447 29.553 11.1956C30.8054 10.967 32.0029 10.5096 33.0707 9.89656C32.6566 11.147 31.7884 12.2028 30.6358 12.8694C31.7535 12.7526 32.8312 12.4509 33.8291 12.0276C33.0757 13.1078 32.1327 14.0663 31.0499 14.8302Z" fill="white"/>
</svg>
